<svg width="48" height="48" viewBox="0 0 48 48" fill="none" xmlns="http://www.w3.org/2000/svg">
<rect x="8.5" y="4.5" width="8" height="43" rx="0.5" stroke="#1C1C1C"/>
<rect x="9" y="7" width="7" height="1" rx="0.5" fill="#1C1C1C"/>
<rect x="9" y="13" width="7" height="1" rx="0.5" fill="#1C1C1C"/>
<rect x="9" y="44" width="7" height="1" rx="0.5" fill="#1C1C1C"/>
<rect x="9" y="42" width="7" height="1" rx="0.5" fill="#1C1C1C"/>
<g clip-path="url(#clip0_601_3655)">
<rect x="31.749" y="41.5825" width="7" height="1" rx="0.5" transform="rotate(-6.16822 31.749 41.5825)" fill="#1C1C1C"/>
<rect x="31.9639" y="43.5708" width="7" height="1" rx="0.5" transform="rotate(-6.16822 31.9639 43.5708)" fill="#1C1C1C"/>
<rect x="28.2031" y="8.77344" width="7" height="1" rx="0.5" transform="rotate(-6.16822 28.2031 8.77344)" fill="#1C1C1C"/>
<rect x="28.4189" y="10.762" width="7" height="1" rx="0.5" transform="rotate(-6.16822 28.4189 10.762)" fill="#1C1C1C"/>
</g>
<rect x="27.5508" y="7.44338" width="8" height="39.9756" rx="0.5" transform="rotate(-6.16822 27.5508 7.44338)" stroke="#1C1C1C"/>
<rect x="18.5" y="0.5" width="8" height="47" rx="0.5" stroke="#1C1C1C"/>
<rect x="19" y="44" width="7" height="1" rx="0.5" fill="#1C1C1C"/>
<rect x="19" y="42" width="7" height="1" rx="0.5" fill="#1C1C1C"/>
<rect x="19" y="6" width="7" height="1" rx="0.5" fill="#1C1C1C"/>
<rect x="19" y="4" width="7" height="1" rx="0.5" fill="#1C1C1C"/>
<rect x="19" y="8" width="7" height="1" rx="0.5" fill="#1C1C1C"/>
<path d="M6.34869 5.472L4.70869 11H3.45269L1.76469 5.472H2.90069L4.10069 10.064L5.26869 5.472H6.34869ZM5.24397 20L4.89997 18.72H3.06797L2.72397 20H1.62797L3.34797 14.472H4.65197L6.36397 20H5.24397ZM3.27597 17.92H4.68397L3.97997 15.28L3.27597 17.92ZM4.00881 26.784H3.33681V29H2.28081V23.472H3.92881C5.39015 23.472 6.12081 24.0133 6.12081 25.096C6.12081 25.464 6.03015 25.768 5.84881 26.008C5.66748 26.248 5.38481 26.4427 5.00081 26.592L6.44881 29H5.23281L4.00881 26.784ZM3.33681 26.024H3.99281C4.32881 26.024 4.58215 25.952 4.75281 25.808C4.92881 25.6587 5.01681 25.4213 5.01681 25.096C5.01681 24.7973 4.92615 24.5813 4.74481 24.448C4.56881 24.3093 4.28881 24.24 3.90481 24.24H3.33681V26.024ZM6.21953 32.472L6.10753 33.312H4.66753V38H3.60353V33.312H2.11553V32.472H6.21953ZM4.00238 41.352C4.49838 41.352 4.92771 41.464 5.29038 41.688C5.65304 41.912 5.93038 42.24 6.12238 42.672C6.31971 43.104 6.41838 43.624 6.41838 44.232C6.41838 44.8347 6.31971 45.352 6.12238 45.784C5.92504 46.216 5.64504 46.5467 5.28238 46.776C4.91971 47.0053 4.49304 47.12 4.00238 47.12C3.50638 47.12 3.07704 47.008 2.71438 46.784C2.35171 46.56 2.07171 46.232 1.87438 45.8C1.67704 45.368 1.57838 44.848 1.57838 44.24C1.57838 43.6427 1.67704 43.128 1.87438 42.696C2.07171 42.2587 2.35171 41.9253 2.71438 41.696C3.08238 41.4667 3.51171 41.352 4.00238 41.352ZM4.00238 42.16C3.57571 42.16 3.25038 42.328 3.02638 42.664C2.80238 42.9947 2.69038 43.52 2.69038 44.24C2.69038 45.6213 3.12771 46.312 4.00238 46.312C4.42904 46.312 4.75171 46.1467 4.97038 45.816C5.19438 45.4853 5.30638 44.9573 5.30638 44.232C5.30638 43.512 5.19438 42.9867 4.97038 42.656C4.75171 42.3253 4.42904 42.16 4.00238 42.16Z" fill="#1C1C1C"/>
<path d="M40.9922 16.2169L40.3241 16.2891L40.5622 18.4923L39.5123 18.6058L38.9182 13.1098L40.5567 12.9327C42.0095 12.7756 42.7941 13.2353 42.9105 14.3117C42.9501 14.6775 42.8926 14.9895 42.7381 15.2476C42.5836 15.5057 42.3235 15.7296 41.9578 15.9194L43.6562 18.1578L42.4472 18.2885L40.9922 16.2169ZM40.2424 15.5335L40.8946 15.463C41.2286 15.4269 41.4728 15.3281 41.627 15.1666C41.7859 14.9992 41.8479 14.7538 41.8129 14.4303C41.7808 14.1334 41.6674 13.9284 41.4728 13.8153C41.2829 13.6964 40.9971 13.6575 40.6153 13.6988L40.0506 13.7598L40.2424 15.5335ZM43.3973 21.678L43.3702 22.4695L41.342 22.6888L41.5079 24.2238L43.2737 24.0329L43.3579 24.8124L41.5922 25.0033L41.7668 26.6179L43.9381 26.3831L44.0232 27.1706L40.802 27.5188L40.2079 22.0228L43.3973 21.678ZM44.4706 36.1746L43.9911 34.939L42.1697 35.1359L41.9652 36.4455L40.8756 36.5633L41.9915 30.8824L43.2879 30.7423L45.5841 36.0542L44.4706 36.1746ZM42.2905 34.3182L43.6903 34.1669L42.7067 31.6178L42.2905 34.3182ZM43.0247 39.8232C43.8784 39.7309 44.5807 39.8508 45.1315 40.1828C45.6877 40.5143 46.022 41.1997 46.1343 42.2389C46.2444 43.257 46.0702 44.0027 45.6118 44.4761C45.1527 44.9441 44.5361 45.22 43.762 45.3037L42.2667 45.4653L41.6726 39.9693L43.0247 39.8232ZM42.8076 40.6433L43.2315 44.5644L43.7484 44.5085C44.2151 44.4581 44.5655 44.2754 44.7996 43.9604C45.0332 43.6401 45.1096 43.1061 45.0288 42.3585C44.9726 41.8388 44.8604 41.4459 44.6921 41.1798C44.5286 40.9078 44.3301 40.7335 44.0965 40.6568C43.8682 40.5796 43.6003 40.5576 43.2927 40.5908L42.8076 40.6433Z" fill="#1C1C1C"/>
<defs>
<clipPath id="clip0_601_3655">
<rect x="27" y="7" width="9" height="40.9756" rx="1" transform="rotate(-6.16822 27 7)" fill="white"/>
</clipPath>
</defs>
</svg>
